<?xml version="1.0" standalone="no"?>
<!DOCTYPE svg PUBLIC "-//W3C//DTD SVG 20010904//EN"
 "http://www.w3.org/TR/2001/REC-SVG-20010904/DTD/svg10.dtd">
<svg version="1.0" xmlns="http://www.w3.org/2000/svg"
 width="445.000000pt" height="445.000000pt" viewBox="0 0 445.000000 445.000000"
 preserveAspectRatio="xMidYMid meet">
<metadata>
Created by potrace 1.14, written by Peter Selinger 2001-2017
</metadata>
<g transform="translate(0.000000,445.000000) scale(0.100000,-0.100000)"
fill="#000000" stroke="none">
<path d="M647 4382 c-16 -3 -17 -33 -17 -335 -1 -400 -1 -3074 0 -3168 l0 -66
330 0 330 0 1 556 c1 306 0 589 0 628 l-2 73 115 0 114 0 0 -981 c0 -645 3
-984 10 -988 13 -8 640 -6 648 2 4 4 7 286 7 627 0 452 3 620 11 621 6 0 155
2 331 5 340 4 384 6 403 18 7 4 12 2 12 -4 0 -6 5 -8 10 -5 6 4 27 9 48 11 20
3 47 7 60 9 12 3 34 7 50 10 23 4 50 11 85 20 4 2 8 3 10 5 1 1 11 3 22 5 24
3 96 28 151 52 21 9 46 18 54 19 8 2 16 8 18 13 2 6 10 11 19 11 16 0 106 50
111 62 2 4 10 8 18 8 8 0 14 5 14 10 0 6 5 10 11 10 6 0 16 6 24 13 7 6 26 22
42 34 42 32 107 97 144 145 19 24 36 45 39 48 6 6 22 33 71 125 35 65 72 165
83 225 2 14 5 25 6 25 5 0 21 96 25 147 1 26 5 50 7 55 11 20 -1 242 -18 338
-20 117 -73 272 -114 335 -5 8 -17 29 -26 45 -41 73 -141 180 -245 259 -64 48
-240 143 -280 151 -10 2 -26 8 -36 13 -10 5 -61 20 -113 33 -108 26 -116 30
-125 66 -10 39 -97 213 -107 213 -4 0 -8 7 -8 15 0 24 -190 208 -265 256 -58
38 -196 109 -210 109 -2 0 -16 5 -32 12 -15 6 -30 12 -33 13 -3 1 -12 4 -20 8
-15 6 -90 26 -120 32 -8 2 -45 10 -83 19 -37 9 -71 15 -75 15 -4 -1 -9 0 -12
1 -3 1 -25 3 -50 6 -25 2 -65 6 -90 9 -46 7 -1323 13 -1353 7z m920 -516 c3
-3 10 -3 15 0 13 8 134 8 146 0 6 -4 13 -2 17 3 3 6 11 8 18 6 7 -2 58 -6 115
-9 57 -3 106 -7 110 -10 4 -2 24 -7 45 -10 69 -11 198 -68 260 -115 34 -25 62
-50 62 -55 0 -11 -145 -14 -152 -4 -2 5 -9 5 -16 1 -15 -9 -218 -10 -224 0 -2
4 -12 3 -21 -1 -9 -4 -108 -7 -219 -7 l-203 1 -1 -35 c0 -20 0 -262 0 -538
l-1 -502 -51 -3 c-29 -2 -80 -2 -113 0 l-62 4 0 638 0 639 29 -1 c16 -1 31 1
33 3 6 6 207 1 213 -5z m936 -739 c-9 -127 -83 -282 -173 -365 -32 -29 -126
-92 -139 -92 -8 0 -13 465 -5 480 1 3 74 5 161 5 l158 -1 -2 -27z m728 -150
c51 -48 97 -118 124 -188 13 -32 21 -59 19 -59 -3 0 0 -9 6 -20 10 -19 22
-144 21 -217 0 -29 -12 -105 -26 -176 -18 -88 -79 -194 -154 -267 -50 -48
-138 -104 -157 -100 -4 1 -10 -3 -13 -9 -4 -6 -16 -12 -26 -14 -11 -1 -26 -6
-32 -10 -7 -5 -17 -5 -23 -2 -5 3 -10 2 -10 -3 0 -24 -162 -36 -465 -37 l-310
0 0 114 0 114 60 14 c78 17 133 32 172 49 17 8 35 14 40 14 5 0 37 14 71 30
34 17 65 30 67 30 10 0 140 84 185 119 111 86 230 235 282 351 11 25 26 59 34
77 13 29 47 154 58 214 2 13 5 25 5 27 2 7 39 -19 72 -51z"/>
</g>
</svg>
